<mxfile host="Electron" modified="2023-07-12T17:25:21.913Z" agent="Mozilla/5.0 (Macintosh; Intel Mac OS X 10_15_7) AppleWebKit/537.36 (KHTML, like Gecko) draw.io/21.6.1 Chrome/112.0.5615.204 Electron/24.6.1 Safari/537.36" etag="fBhCIldxaRgE0KmNUuvU" version="21.6.1" type="device">
  <diagram name="Страница 1" id="yI9zd2pT9esUjkgYPhoz">
    <mxGraphModel dx="1555" dy="843" grid="1" gridSize="10" guides="1" tooltips="1" connect="1" arrows="1" fold="1" page="1" pageScale="1.5" pageWidth="827" pageHeight="1169" math="0" shadow="0">
      <root>
        <mxCell id="0" />
        <mxCell id="1" parent="0" />
        <mxCell id="V9B4uRtNzhAgs2MjrMtX-5" value="" style="rounded=0;whiteSpace=wrap;html=1;dashed=1;dashPattern=8 8;" vertex="1" parent="1">
          <mxGeometry x="180" y="30" width="890" height="1200" as="geometry" />
        </mxCell>
        <mxCell id="V9B4uRtNzhAgs2MjrMtX-141" style="edgeStyle=orthogonalEdgeStyle;rounded=0;orthogonalLoop=1;jettySize=auto;html=1;exitX=0.5;exitY=1;exitDx=0;exitDy=0;entryX=0;entryY=0.5;entryDx=0;entryDy=0;" edge="1" parent="1" source="V9B4uRtNzhAgs2MjrMtX-8" target="V9B4uRtNzhAgs2MjrMtX-84">
          <mxGeometry relative="1" as="geometry" />
        </mxCell>
        <mxCell id="V9B4uRtNzhAgs2MjrMtX-142" style="edgeStyle=orthogonalEdgeStyle;rounded=0;orthogonalLoop=1;jettySize=auto;html=1;exitX=1;exitY=0.5;exitDx=0;exitDy=0;entryX=0;entryY=0.5;entryDx=0;entryDy=0;" edge="1" parent="1" source="V9B4uRtNzhAgs2MjrMtX-8" target="V9B4uRtNzhAgs2MjrMtX-33">
          <mxGeometry relative="1" as="geometry" />
        </mxCell>
        <mxCell id="V9B4uRtNzhAgs2MjrMtX-143" style="edgeStyle=orthogonalEdgeStyle;rounded=0;orthogonalLoop=1;jettySize=auto;html=1;exitX=1;exitY=0.25;exitDx=0;exitDy=0;" edge="1" parent="1" source="V9B4uRtNzhAgs2MjrMtX-8" target="V9B4uRtNzhAgs2MjrMtX-10">
          <mxGeometry relative="1" as="geometry" />
        </mxCell>
        <mxCell id="V9B4uRtNzhAgs2MjrMtX-144" style="edgeStyle=orthogonalEdgeStyle;rounded=0;orthogonalLoop=1;jettySize=auto;html=1;exitX=0.75;exitY=1;exitDx=0;exitDy=0;entryX=0;entryY=0.5;entryDx=0;entryDy=0;" edge="1" parent="1" source="V9B4uRtNzhAgs2MjrMtX-8" target="V9B4uRtNzhAgs2MjrMtX-99">
          <mxGeometry relative="1" as="geometry" />
        </mxCell>
        <mxCell id="V9B4uRtNzhAgs2MjrMtX-8" value="" style="rounded=1;whiteSpace=wrap;html=1;dashed=1;strokeColor=default;" vertex="1" parent="1">
          <mxGeometry x="230" y="270" width="150" height="80" as="geometry" />
        </mxCell>
        <mxCell id="V9B4uRtNzhAgs2MjrMtX-7" value="" style="rounded=0;whiteSpace=wrap;html=1;perimeterSpacing=0;" vertex="1" parent="1">
          <mxGeometry x="245" y="280" width="120" height="60" as="geometry" />
        </mxCell>
        <mxCell id="V9B4uRtNzhAgs2MjrMtX-9" value="API GATEWAY" style="text;html=1;strokeColor=none;fillColor=none;align=center;verticalAlign=middle;whiteSpace=wrap;rounded=0;" vertex="1" parent="1">
          <mxGeometry x="245" y="295" width="110" height="30" as="geometry" />
        </mxCell>
        <mxCell id="V9B4uRtNzhAgs2MjrMtX-128" value="" style="group" vertex="1" connectable="0" parent="1">
          <mxGeometry x="510" y="860" width="340" height="150" as="geometry" />
        </mxCell>
        <mxCell id="V9B4uRtNzhAgs2MjrMtX-99" value="" style="rounded=1;whiteSpace=wrap;html=1;dashed=1;" vertex="1" parent="V9B4uRtNzhAgs2MjrMtX-128">
          <mxGeometry width="340" height="150" as="geometry" />
        </mxCell>
        <mxCell id="V9B4uRtNzhAgs2MjrMtX-100" value="Comment" style="swimlane;" vertex="1" parent="V9B4uRtNzhAgs2MjrMtX-128">
          <mxGeometry x="40" y="17.5" width="180" height="115" as="geometry" />
        </mxCell>
        <mxCell id="V9B4uRtNzhAgs2MjrMtX-75" value="PostComment" style="rounded=1;whiteSpace=wrap;html=1;" vertex="1" parent="V9B4uRtNzhAgs2MjrMtX-100">
          <mxGeometry x="5" y="30" width="170" height="20" as="geometry" />
        </mxCell>
        <mxCell id="V9B4uRtNzhAgs2MjrMtX-106" value="DeleteonComment" style="rounded=1;whiteSpace=wrap;html=1;" vertex="1" parent="V9B4uRtNzhAgs2MjrMtX-100">
          <mxGeometry x="5" y="55" width="170" height="20" as="geometry" />
        </mxCell>
        <mxCell id="V9B4uRtNzhAgs2MjrMtX-115" value="GetComments" style="rounded=1;whiteSpace=wrap;html=1;" vertex="1" parent="V9B4uRtNzhAgs2MjrMtX-100">
          <mxGeometry x="5" y="80" width="170" height="20" as="geometry" />
        </mxCell>
        <mxCell id="V9B4uRtNzhAgs2MjrMtX-102" value="" style="endArrow=classic;html=1;rounded=0;" edge="1" parent="V9B4uRtNzhAgs2MjrMtX-128">
          <mxGeometry width="50" height="50" relative="1" as="geometry">
            <mxPoint x="260" y="77.5" as="sourcePoint" />
            <mxPoint x="230" y="77.5" as="targetPoint" />
          </mxGeometry>
        </mxCell>
        <mxCell id="V9B4uRtNzhAgs2MjrMtX-103" value="" style="shape=cylinder3;whiteSpace=wrap;html=1;boundedLbl=1;backgroundOutline=1;size=15;" vertex="1" parent="V9B4uRtNzhAgs2MjrMtX-128">
          <mxGeometry x="270" y="27.5" width="50" height="70" as="geometry" />
        </mxCell>
        <mxCell id="V9B4uRtNzhAgs2MjrMtX-104" value="" style="endArrow=classic;html=1;rounded=0;" edge="1" parent="V9B4uRtNzhAgs2MjrMtX-128">
          <mxGeometry width="50" height="50" relative="1" as="geometry">
            <mxPoint x="230" y="62" as="sourcePoint" />
            <mxPoint x="260" y="62" as="targetPoint" />
            <Array as="points">
              <mxPoint x="240" y="62" />
            </Array>
          </mxGeometry>
        </mxCell>
        <mxCell id="V9B4uRtNzhAgs2MjrMtX-116" value="MongoDB" style="text;html=1;strokeColor=none;fillColor=none;align=center;verticalAlign=middle;whiteSpace=wrap;rounded=0;" vertex="1" parent="V9B4uRtNzhAgs2MjrMtX-128">
          <mxGeometry x="265" y="97.5" width="60" height="30" as="geometry" />
        </mxCell>
        <mxCell id="V9B4uRtNzhAgs2MjrMtX-135" value="" style="group" vertex="1" connectable="0" parent="1">
          <mxGeometry x="510" y="50" width="340" height="280" as="geometry" />
        </mxCell>
        <mxCell id="V9B4uRtNzhAgs2MjrMtX-10" value="" style="rounded=1;whiteSpace=wrap;html=1;dashed=1;" vertex="1" parent="V9B4uRtNzhAgs2MjrMtX-135">
          <mxGeometry width="340" height="280" as="geometry" />
        </mxCell>
        <mxCell id="V9B4uRtNzhAgs2MjrMtX-14" value="User" style="swimlane;" vertex="1" parent="V9B4uRtNzhAgs2MjrMtX-135">
          <mxGeometry x="40" y="10" width="180" height="240" as="geometry" />
        </mxCell>
        <mxCell id="V9B4uRtNzhAgs2MjrMtX-45" value="RegisterUser" style="rounded=1;whiteSpace=wrap;html=1;" vertex="1" parent="V9B4uRtNzhAgs2MjrMtX-14">
          <mxGeometry x="5" y="30" width="170" height="20" as="geometry" />
        </mxCell>
        <mxCell id="V9B4uRtNzhAgs2MjrMtX-46" value="Authentication" style="rounded=1;whiteSpace=wrap;html=1;" vertex="1" parent="V9B4uRtNzhAgs2MjrMtX-14">
          <mxGeometry x="5" y="55" width="170" height="20" as="geometry" />
        </mxCell>
        <mxCell id="V9B4uRtNzhAgs2MjrMtX-93" value="ShowUserDetails" style="rounded=1;whiteSpace=wrap;html=1;" vertex="1" parent="V9B4uRtNzhAgs2MjrMtX-14">
          <mxGeometry x="5" y="105" width="170" height="20" as="geometry" />
        </mxCell>
        <mxCell id="V9B4uRtNzhAgs2MjrMtX-94" value="ChangeUserPassword" style="rounded=1;whiteSpace=wrap;html=1;" vertex="1" parent="V9B4uRtNzhAgs2MjrMtX-14">
          <mxGeometry x="5" y="130" width="170" height="20" as="geometry" />
        </mxCell>
        <mxCell id="V9B4uRtNzhAgs2MjrMtX-112" value="UploadAvatar" style="rounded=1;whiteSpace=wrap;html=1;" vertex="1" parent="V9B4uRtNzhAgs2MjrMtX-14">
          <mxGeometry x="5" y="205" width="170" height="20" as="geometry" />
        </mxCell>
        <mxCell id="V9B4uRtNzhAgs2MjrMtX-83" value="UserFeed" style="rounded=1;whiteSpace=wrap;html=1;" vertex="1" parent="V9B4uRtNzhAgs2MjrMtX-135">
          <mxGeometry x="45" y="90" width="170" height="20" as="geometry" />
        </mxCell>
        <mxCell id="V9B4uRtNzhAgs2MjrMtX-96" value="SubscribeToOtherUsers" style="rounded=1;whiteSpace=wrap;html=1;" vertex="1" parent="V9B4uRtNzhAgs2MjrMtX-135">
          <mxGeometry x="45" y="165" width="170" height="20" as="geometry" />
        </mxCell>
        <mxCell id="V9B4uRtNzhAgs2MjrMtX-113" value="UnsubscribeToOtherUsers" style="rounded=1;whiteSpace=wrap;html=1;" vertex="1" parent="V9B4uRtNzhAgs2MjrMtX-135">
          <mxGeometry x="45" y="190" width="170" height="20" as="geometry" />
        </mxCell>
        <mxCell id="V9B4uRtNzhAgs2MjrMtX-19" value="" style="endArrow=classic;html=1;rounded=0;" edge="1" parent="V9B4uRtNzhAgs2MjrMtX-135">
          <mxGeometry width="50" height="50" relative="1" as="geometry">
            <mxPoint x="260" y="170" as="sourcePoint" />
            <mxPoint x="230" y="170" as="targetPoint" />
          </mxGeometry>
        </mxCell>
        <mxCell id="V9B4uRtNzhAgs2MjrMtX-24" value="" style="shape=cylinder3;whiteSpace=wrap;html=1;boundedLbl=1;backgroundOutline=1;size=15;" vertex="1" parent="V9B4uRtNzhAgs2MjrMtX-135">
          <mxGeometry x="270" y="120" width="50" height="70" as="geometry" />
        </mxCell>
        <mxCell id="V9B4uRtNzhAgs2MjrMtX-25" value="MongoDB" style="text;html=1;strokeColor=none;fillColor=none;align=center;verticalAlign=middle;whiteSpace=wrap;rounded=0;" vertex="1" parent="V9B4uRtNzhAgs2MjrMtX-135">
          <mxGeometry x="265" y="185" width="60" height="30" as="geometry" />
        </mxCell>
        <mxCell id="V9B4uRtNzhAgs2MjrMtX-49" value="" style="endArrow=classic;html=1;rounded=0;" edge="1" parent="V9B4uRtNzhAgs2MjrMtX-135">
          <mxGeometry width="50" height="50" relative="1" as="geometry">
            <mxPoint x="230" y="154.5" as="sourcePoint" />
            <mxPoint x="260" y="154.5" as="targetPoint" />
            <Array as="points">
              <mxPoint x="240" y="154.5" />
            </Array>
          </mxGeometry>
        </mxCell>
        <mxCell id="V9B4uRtNzhAgs2MjrMtX-136" value="" style="group" vertex="1" connectable="0" parent="1">
          <mxGeometry x="510" y="360" width="340" height="470" as="geometry" />
        </mxCell>
        <mxCell id="V9B4uRtNzhAgs2MjrMtX-33" value="" style="rounded=1;whiteSpace=wrap;html=1;dashed=1;" vertex="1" parent="V9B4uRtNzhAgs2MjrMtX-136">
          <mxGeometry width="340" height="470" as="geometry" />
        </mxCell>
        <mxCell id="V9B4uRtNzhAgs2MjrMtX-34" value="Post" style="swimlane;" vertex="1" parent="V9B4uRtNzhAgs2MjrMtX-136">
          <mxGeometry x="40" y="10" width="180" height="435" as="geometry" />
        </mxCell>
        <mxCell id="V9B4uRtNzhAgs2MjrMtX-47" value="CreatePost" style="rounded=1;whiteSpace=wrap;html=1;" vertex="1" parent="V9B4uRtNzhAgs2MjrMtX-136">
          <mxGeometry x="45" y="40" width="170" height="20" as="geometry" />
        </mxCell>
        <mxCell id="V9B4uRtNzhAgs2MjrMtX-48" value="ShowPostDetails" style="rounded=1;whiteSpace=wrap;html=1;" vertex="1" parent="V9B4uRtNzhAgs2MjrMtX-136">
          <mxGeometry x="45" y="65" width="170" height="20" as="geometry" />
        </mxCell>
        <mxCell id="V9B4uRtNzhAgs2MjrMtX-59" value="" style="endArrow=classic;html=1;rounded=0;" edge="1" parent="V9B4uRtNzhAgs2MjrMtX-136">
          <mxGeometry width="50" height="50" relative="1" as="geometry">
            <mxPoint x="260" y="215" as="sourcePoint" />
            <mxPoint x="230" y="215" as="targetPoint" />
          </mxGeometry>
        </mxCell>
        <mxCell id="V9B4uRtNzhAgs2MjrMtX-60" value="" style="shape=cylinder3;whiteSpace=wrap;html=1;boundedLbl=1;backgroundOutline=1;size=15;" vertex="1" parent="V9B4uRtNzhAgs2MjrMtX-136">
          <mxGeometry x="270" y="165" width="50" height="70" as="geometry" />
        </mxCell>
        <mxCell id="V9B4uRtNzhAgs2MjrMtX-61" value="" style="endArrow=classic;html=1;rounded=0;" edge="1" parent="V9B4uRtNzhAgs2MjrMtX-136">
          <mxGeometry width="50" height="50" relative="1" as="geometry">
            <mxPoint x="230" y="199.5" as="sourcePoint" />
            <mxPoint x="260" y="199.5" as="targetPoint" />
            <Array as="points">
              <mxPoint x="240" y="199.5" />
            </Array>
          </mxGeometry>
        </mxCell>
        <mxCell id="V9B4uRtNzhAgs2MjrMtX-65" value="MongoDB" style="text;html=1;strokeColor=none;fillColor=none;align=center;verticalAlign=middle;whiteSpace=wrap;rounded=0;" vertex="1" parent="V9B4uRtNzhAgs2MjrMtX-136">
          <mxGeometry x="265" y="235" width="60" height="30" as="geometry" />
        </mxCell>
        <mxCell id="V9B4uRtNzhAgs2MjrMtX-69" value="EditingPost" style="rounded=1;whiteSpace=wrap;html=1;" vertex="1" parent="V9B4uRtNzhAgs2MjrMtX-136">
          <mxGeometry x="45" y="90" width="170" height="20" as="geometry" />
        </mxCell>
        <mxCell id="V9B4uRtNzhAgs2MjrMtX-70" value="DeletionPost" style="rounded=1;whiteSpace=wrap;html=1;" vertex="1" parent="V9B4uRtNzhAgs2MjrMtX-136">
          <mxGeometry x="45" y="115" width="170" height="20" as="geometry" />
        </mxCell>
        <mxCell id="V9B4uRtNzhAgs2MjrMtX-73" value="UploadImages" style="rounded=1;whiteSpace=wrap;html=1;" vertex="1" parent="V9B4uRtNzhAgs2MjrMtX-136">
          <mxGeometry x="45" y="140" width="170" height="20" as="geometry" />
        </mxCell>
        <mxCell id="V9B4uRtNzhAgs2MjrMtX-76" value="LikesForPosts" style="rounded=1;whiteSpace=wrap;html=1;" vertex="1" parent="V9B4uRtNzhAgs2MjrMtX-136">
          <mxGeometry x="45" y="190" width="170" height="20" as="geometry" />
        </mxCell>
        <mxCell id="V9B4uRtNzhAgs2MjrMtX-77" value="CountingTheNumberOfLikes" style="rounded=1;whiteSpace=wrap;html=1;" vertex="1" parent="V9B4uRtNzhAgs2MjrMtX-136">
          <mxGeometry x="45" y="215" width="170" height="20" as="geometry" />
        </mxCell>
        <mxCell id="V9B4uRtNzhAgs2MjrMtX-78" value="PaginationForPost" style="rounded=1;whiteSpace=wrap;html=1;" vertex="1" parent="V9B4uRtNzhAgs2MjrMtX-136">
          <mxGeometry x="45" y="240" width="170" height="20" as="geometry" />
        </mxCell>
        <mxCell id="V9B4uRtNzhAgs2MjrMtX-79" value="GettingPosts" style="rounded=1;whiteSpace=wrap;html=1;" vertex="1" parent="V9B4uRtNzhAgs2MjrMtX-136">
          <mxGeometry x="45" y="265" width="170" height="20" as="geometry" />
        </mxCell>
        <mxCell id="V9B4uRtNzhAgs2MjrMtX-80" value="GettingPostsUsingSorting" style="rounded=1;whiteSpace=wrap;html=1;" vertex="1" parent="V9B4uRtNzhAgs2MjrMtX-136">
          <mxGeometry x="45" y="290" width="170" height="20" as="geometry" />
        </mxCell>
        <mxCell id="V9B4uRtNzhAgs2MjrMtX-81" value="RepostOfPosts" style="rounded=1;whiteSpace=wrap;html=1;" vertex="1" parent="V9B4uRtNzhAgs2MjrMtX-136">
          <mxGeometry x="45" y="315" width="170" height="20" as="geometry" />
        </mxCell>
        <mxCell id="V9B4uRtNzhAgs2MjrMtX-82" value="GettingPostsByTags" style="rounded=1;whiteSpace=wrap;html=1;" vertex="1" parent="V9B4uRtNzhAgs2MjrMtX-136">
          <mxGeometry x="45" y="340" width="170" height="20" as="geometry" />
        </mxCell>
        <mxCell id="V9B4uRtNzhAgs2MjrMtX-92" value="SearchPostByTitle" style="rounded=1;whiteSpace=wrap;html=1;" vertex="1" parent="V9B4uRtNzhAgs2MjrMtX-136">
          <mxGeometry x="45" y="365" width="170" height="20" as="geometry" />
        </mxCell>
        <mxCell id="V9B4uRtNzhAgs2MjrMtX-107" value="GettingPostsForOtherUser" style="rounded=1;whiteSpace=wrap;html=1;" vertex="1" parent="V9B4uRtNzhAgs2MjrMtX-136">
          <mxGeometry x="45" y="165" width="170" height="20" as="geometry" />
        </mxCell>
        <mxCell id="V9B4uRtNzhAgs2MjrMtX-108" value="GettingDraft" style="rounded=1;whiteSpace=wrap;html=1;" vertex="1" parent="V9B4uRtNzhAgs2MjrMtX-136">
          <mxGeometry x="45" y="390" width="170" height="20" as="geometry" />
        </mxCell>
        <mxCell id="V9B4uRtNzhAgs2MjrMtX-111" value="GettingPostsByType" style="rounded=1;whiteSpace=wrap;html=1;" vertex="1" parent="V9B4uRtNzhAgs2MjrMtX-136">
          <mxGeometry x="45" y="415" width="170" height="20" as="geometry" />
        </mxCell>
        <mxCell id="V9B4uRtNzhAgs2MjrMtX-138" value="" style="group" vertex="1" connectable="0" parent="1">
          <mxGeometry x="510" y="1044" width="340" height="115" as="geometry" />
        </mxCell>
        <mxCell id="V9B4uRtNzhAgs2MjrMtX-84" value="" style="rounded=1;whiteSpace=wrap;html=1;dashed=1;" vertex="1" parent="V9B4uRtNzhAgs2MjrMtX-138">
          <mxGeometry width="340" height="115" as="geometry" />
        </mxCell>
        <mxCell id="V9B4uRtNzhAgs2MjrMtX-85" value="Notify" style="swimlane;" vertex="1" parent="V9B4uRtNzhAgs2MjrMtX-138">
          <mxGeometry x="40" y="17.5" width="180" height="55" as="geometry" />
        </mxCell>
        <mxCell id="V9B4uRtNzhAgs2MjrMtX-86" value="Mail" style="rounded=1;whiteSpace=wrap;html=1;" vertex="1" parent="V9B4uRtNzhAgs2MjrMtX-85">
          <mxGeometry x="5" y="30" width="170" height="20" as="geometry" />
        </mxCell>
        <mxCell id="V9B4uRtNzhAgs2MjrMtX-88" value="" style="endArrow=classic;html=1;rounded=0;" edge="1" parent="V9B4uRtNzhAgs2MjrMtX-138">
          <mxGeometry width="50" height="50" relative="1" as="geometry">
            <mxPoint x="260" y="60" as="sourcePoint" />
            <mxPoint x="230" y="60" as="targetPoint" />
          </mxGeometry>
        </mxCell>
        <mxCell id="V9B4uRtNzhAgs2MjrMtX-89" value="" style="shape=cylinder3;whiteSpace=wrap;html=1;boundedLbl=1;backgroundOutline=1;size=15;" vertex="1" parent="V9B4uRtNzhAgs2MjrMtX-138">
          <mxGeometry x="270" y="10" width="50" height="70" as="geometry" />
        </mxCell>
        <mxCell id="V9B4uRtNzhAgs2MjrMtX-90" value="" style="endArrow=classic;html=1;rounded=0;" edge="1" parent="V9B4uRtNzhAgs2MjrMtX-138">
          <mxGeometry width="50" height="50" relative="1" as="geometry">
            <mxPoint x="230" y="44.5" as="sourcePoint" />
            <mxPoint x="260" y="44.5" as="targetPoint" />
            <Array as="points">
              <mxPoint x="240" y="44.5" />
            </Array>
          </mxGeometry>
        </mxCell>
        <mxCell id="V9B4uRtNzhAgs2MjrMtX-66" value="RabbitMQ" style="text;html=1;strokeColor=none;fillColor=none;align=center;verticalAlign=middle;whiteSpace=wrap;rounded=0;" vertex="1" parent="V9B4uRtNzhAgs2MjrMtX-138">
          <mxGeometry x="265" y="80" width="60" height="30" as="geometry" />
        </mxCell>
        <mxCell id="V9B4uRtNzhAgs2MjrMtX-147" style="edgeStyle=orthogonalEdgeStyle;rounded=0;orthogonalLoop=1;jettySize=auto;html=1;exitX=1;exitY=0.5;exitDx=0;exitDy=0;entryX=1;entryY=0.5;entryDx=0;entryDy=0;" edge="1" parent="1" source="V9B4uRtNzhAgs2MjrMtX-10" target="V9B4uRtNzhAgs2MjrMtX-99">
          <mxGeometry relative="1" as="geometry">
            <Array as="points">
              <mxPoint x="890" y="190" />
              <mxPoint x="890" y="935" />
            </Array>
          </mxGeometry>
        </mxCell>
        <mxCell id="V9B4uRtNzhAgs2MjrMtX-148" style="edgeStyle=orthogonalEdgeStyle;rounded=0;orthogonalLoop=1;jettySize=auto;html=1;exitX=1;exitY=0.25;exitDx=0;exitDy=0;" edge="1" parent="1" source="V9B4uRtNzhAgs2MjrMtX-10">
          <mxGeometry relative="1" as="geometry">
            <mxPoint x="850" y="1130" as="targetPoint" />
            <Array as="points">
              <mxPoint x="990" y="120" />
              <mxPoint x="990" y="1130" />
            </Array>
          </mxGeometry>
        </mxCell>
        <mxCell id="V9B4uRtNzhAgs2MjrMtX-149" style="edgeStyle=orthogonalEdgeStyle;rounded=0;orthogonalLoop=1;jettySize=auto;html=1;exitX=1;exitY=0.5;exitDx=0;exitDy=0;entryX=1;entryY=0.5;entryDx=0;entryDy=0;" edge="1" parent="1">
          <mxGeometry relative="1" as="geometry">
            <mxPoint x="850" y="1076.5" as="targetPoint" />
            <mxPoint x="850" y="570" as="sourcePoint" />
            <Array as="points">
              <mxPoint x="940" y="570" />
              <mxPoint x="940" y="1076" />
            </Array>
          </mxGeometry>
        </mxCell>
        <mxCell id="V9B4uRtNzhAgs2MjrMtX-150" style="edgeStyle=orthogonalEdgeStyle;rounded=0;orthogonalLoop=1;jettySize=auto;html=1;exitX=0.5;exitY=1;exitDx=0;exitDy=0;entryX=0.5;entryY=0;entryDx=0;entryDy=0;" edge="1" parent="1" source="V9B4uRtNzhAgs2MjrMtX-99" target="V9B4uRtNzhAgs2MjrMtX-84">
          <mxGeometry relative="1" as="geometry" />
        </mxCell>
        <mxCell id="V9B4uRtNzhAgs2MjrMtX-151" style="edgeStyle=orthogonalEdgeStyle;rounded=0;orthogonalLoop=1;jettySize=auto;html=1;exitX=0.5;exitY=1;exitDx=0;exitDy=0;entryX=0.5;entryY=0;entryDx=0;entryDy=0;" edge="1" parent="1" source="V9B4uRtNzhAgs2MjrMtX-10" target="V9B4uRtNzhAgs2MjrMtX-33">
          <mxGeometry relative="1" as="geometry" />
        </mxCell>
        <mxCell id="V9B4uRtNzhAgs2MjrMtX-152" style="edgeStyle=orthogonalEdgeStyle;rounded=0;orthogonalLoop=1;jettySize=auto;html=1;exitX=0.5;exitY=1;exitDx=0;exitDy=0;entryX=0.5;entryY=0;entryDx=0;entryDy=0;" edge="1" parent="1" source="V9B4uRtNzhAgs2MjrMtX-33" target="V9B4uRtNzhAgs2MjrMtX-99">
          <mxGeometry relative="1" as="geometry" />
        </mxCell>
        <mxCell id="V9B4uRtNzhAgs2MjrMtX-153" value="" style="group" vertex="1" connectable="0" parent="1">
          <mxGeometry x="40" y="580" width="120" height="30" as="geometry" />
        </mxCell>
        <mxCell id="V9B4uRtNzhAgs2MjrMtX-4" value="" style="endArrow=classic;html=1;rounded=0;" edge="1" parent="V9B4uRtNzhAgs2MjrMtX-153">
          <mxGeometry width="50" height="50" relative="1" as="geometry">
            <mxPoint y="29.5" as="sourcePoint" />
            <mxPoint x="120" y="29.5" as="targetPoint" />
            <Array as="points" />
          </mxGeometry>
        </mxCell>
        <mxCell id="V9B4uRtNzhAgs2MjrMtX-154" style="edgeStyle=orthogonalEdgeStyle;rounded=0;orthogonalLoop=1;jettySize=auto;html=1;exitX=0.5;exitY=1;exitDx=0;exitDy=0;" edge="1" parent="1" source="V9B4uRtNzhAgs2MjrMtX-5" target="V9B4uRtNzhAgs2MjrMtX-5">
          <mxGeometry relative="1" as="geometry" />
        </mxCell>
        <mxCell id="V9B4uRtNzhAgs2MjrMtX-6" value="HTTP запросы" style="text;html=1;strokeColor=none;fillColor=none;align=center;verticalAlign=middle;whiteSpace=wrap;rounded=0;" vertex="1" parent="1">
          <mxGeometry x="50" y="570" width="100" height="30" as="geometry" />
        </mxCell>
      </root>
    </mxGraphModel>
  </diagram>
</mxfile>
